<svg width="26" height="26" viewBox="0 0 26 26" fill="none" xmlns="http://www.w3.org/2000/svg">
<path d="M20.5693 22.685L18.1693 11.7516L22.8359 7.08496C24.8359 5.08496 25.5026 2.41829 24.8359 1.08496C23.5026 0.418294 20.8359 1.08496 18.8359 3.08496L14.1693 7.75163L3.23594 5.35163C2.56927 5.21829 2.03594 5.48496 1.76927 6.01829L1.36927 6.68496C1.1026 7.35163 1.23594 8.01829 1.76927 8.41829L8.83594 13.085L6.16927 17.085H2.16927L0.835938 18.4183L4.83594 21.085L7.5026 25.085L8.83594 23.7516V19.7516L12.8359 17.085L17.5026 24.1516C17.9026 24.685 18.5693 24.8183 19.2359 24.5516L19.9026 24.285C20.4359 23.885 20.7026 23.3516 20.5693 22.685Z" stroke="white" stroke-width="1.67" stroke-linecap="round" stroke-linejoin="round"/>
</svg>
