<svg width="56" height="56" viewBox="0 0 56 56" fill="none" xmlns="http://www.w3.org/2000/svg">
<rect width="56" height="56" fill="#B10239"/>
<path d="M37.0009 24L34.7409 21.74C32.9319 19.9912 30.5169 19.0095 28.0009 19C27.0009 19 26.0309 19.16 25.1309 19.47" stroke="white" stroke-width="2" stroke-linecap="round" stroke-linejoin="round"/>
<path d="M24 32H19V37" stroke="white" stroke-width="2" stroke-linecap="round" stroke-linejoin="round"/>
<path d="M19 27.9999C19 25.5099 20 23.2599 21.64 21.6399" stroke="white" stroke-width="2" stroke-linecap="round" stroke-linejoin="round"/>
<path d="M19 32L21.26 34.26C23.069 36.0088 25.484 36.9905 28 37C30.49 37 32.74 36 34.36 34.36" stroke="white" stroke-width="2" stroke-linecap="round" stroke-linejoin="round"/>
<path d="M36.9993 28C36.9993 29 36.8393 29.97 36.5293 30.87" stroke="white" stroke-width="2" stroke-linecap="round" stroke-linejoin="round"/>
<path d="M37 19V24H32" stroke="white" stroke-width="2" stroke-linecap="round" stroke-linejoin="round"/>
<path d="M38 38L18 18" stroke="white" stroke-width="2" stroke-linecap="round" stroke-linejoin="round"/>
</svg>
