<svg width="88" height="29" viewBox="0 0 88 29" fill="none" xmlns="http://www.w3.org/2000/svg">
<path d="M71.5859 15.7895C71.5859 16.1948 71.7063 16.4861 71.9469 16.6635C72.2003 16.8408 72.5486 16.9295 72.9919 16.9295C73.2073 16.9295 73.4226 16.9041 73.6379 16.8535C73.8659 16.8028 74.0686 16.7395 74.2459 16.6635C74.3473 16.7648 74.4296 16.8915 74.4929 17.0435C74.5689 17.1828 74.6069 17.3475 74.6069 17.5375C74.6069 17.9175 74.4359 18.2341 74.0939 18.4875C73.7519 18.7281 73.2009 18.8485 72.4409 18.8485C71.4403 18.8485 70.6486 18.6268 70.0659 18.1835C69.4959 17.7275 69.2109 16.9801 69.2109 15.9415V7.22048C69.3123 7.19515 69.4579 7.16348 69.6479 7.12548C69.8506 7.08748 70.0659 7.06848 70.2939 7.06848C70.7373 7.06848 71.0603 7.15081 71.2629 7.31548C71.4783 7.48015 71.5859 7.77148 71.5859 8.18948V9.76648H74.3789C74.4423 9.86781 74.4993 10.0008 74.5499 10.1655C74.6006 10.3301 74.6259 10.5075 74.6259 10.6975C74.6259 11.0268 74.5499 11.2675 74.3979 11.4195C74.2459 11.5715 74.0433 11.6475 73.7899 11.6475H71.5859V15.7895Z" fill="#1B5773"/>
<path d="M62.7998 17.0435C63.1672 17.0435 63.5028 17.0119 63.8068 16.9485C64.1108 16.8725 64.3325 16.7839 64.4718 16.6825V14.5735L62.6288 14.7445C62.1222 14.7952 61.7358 14.9092 61.4698 15.0865C61.2038 15.2512 61.0708 15.5172 61.0708 15.8845C61.0708 16.2519 61.2038 16.5369 61.4698 16.7395C61.7485 16.9422 62.1918 17.0435 62.7998 17.0435ZM62.7238 9.31055C63.9652 9.31055 64.9532 9.57655 65.6878 10.1085C66.4352 10.6405 66.8088 11.4639 66.8088 12.5785V16.9675C66.8088 17.2715 66.7328 17.5122 66.5808 17.6895C66.4288 17.8669 66.2388 18.0252 66.0108 18.1645C65.6562 18.3799 65.2065 18.5509 64.6618 18.6775C64.1172 18.8042 63.4965 18.8675 62.7998 18.8675C61.5332 18.8675 60.5325 18.6269 59.7978 18.1455C59.0758 17.6515 58.7148 16.9169 58.7148 15.9415C58.7148 15.0929 58.9808 14.4469 59.5128 14.0035C60.0575 13.5475 60.8428 13.2689 61.8688 13.1675L64.4718 12.9015V12.5595C64.4718 12.0782 64.2945 11.7235 63.9398 11.4955C63.5978 11.2675 63.1102 11.1535 62.4768 11.1535C61.9828 11.1535 61.5015 11.2169 61.0328 11.3435C60.5642 11.4575 60.1462 11.6032 59.7788 11.7805C59.6395 11.6792 59.5192 11.5462 59.4178 11.3815C59.3292 11.2042 59.2848 11.0142 59.2848 10.8115C59.2848 10.5582 59.3418 10.3555 59.4558 10.2035C59.5825 10.0389 59.7788 9.89321 60.0448 9.76655C60.4122 9.61455 60.8302 9.50055 61.2988 9.42455C61.7675 9.34855 62.2425 9.31055 62.7238 9.31055Z" fill="#1B5773"/>
<path d="M54.293 15.7895C54.293 16.1948 54.4133 16.4861 54.654 16.6635C54.9073 16.8408 55.2556 16.9295 55.699 16.9295C55.9143 16.9295 56.1296 16.9041 56.345 16.8535C56.573 16.8028 56.7756 16.7395 56.953 16.6635C57.0543 16.7648 57.1366 16.8915 57.2 17.0435C57.276 17.1828 57.314 17.3475 57.314 17.5375C57.314 17.9175 57.143 18.2341 56.801 18.4875C56.459 18.7281 55.908 18.8485 55.148 18.8485C54.1473 18.8485 53.3556 18.6268 52.773 18.1835C52.203 17.7275 51.918 16.9801 51.918 15.9415V7.22048C52.0193 7.19515 52.165 7.16348 52.355 7.12548C52.5576 7.08748 52.773 7.06848 53.001 7.06848C53.4443 7.06848 53.7673 7.15081 53.97 7.31548C54.1853 7.48015 54.293 7.77148 54.293 8.18948V9.76648H57.086C57.1493 9.86781 57.2063 10.0008 57.257 10.1655C57.3076 10.3301 57.333 10.5075 57.333 10.6975C57.333 11.0268 57.257 11.2675 57.105 11.4195C56.953 11.5715 56.7503 11.6475 56.497 11.6475H54.293V15.7895Z" fill="#1B5773"/>
<path d="M49.9657 16.0365C49.9657 16.9232 49.6364 17.6198 48.9778 18.1265C48.3191 18.6205 47.3564 18.8675 46.0898 18.8675C45.5704 18.8675 45.0954 18.8295 44.6648 18.7535C44.2468 18.6775 43.8794 18.5698 43.5627 18.4305C43.2587 18.2785 43.0181 18.1012 42.8407 17.8985C42.6761 17.6832 42.5938 17.4488 42.5938 17.1955C42.5938 16.9548 42.6444 16.7458 42.7458 16.5685C42.8598 16.3912 43.0054 16.2455 43.1827 16.1315C43.5374 16.3595 43.9427 16.5622 44.3987 16.7395C44.8674 16.9168 45.4058 17.0055 46.0138 17.0055C46.5331 17.0055 46.9258 16.9232 47.1918 16.7585C47.4578 16.5812 47.5907 16.3405 47.5907 16.0365C47.5907 15.5172 47.2108 15.1752 46.4508 15.0105L45.3868 14.7635C44.4494 14.5482 43.7527 14.2252 43.2967 13.7945C42.8534 13.3638 42.6318 12.7875 42.6318 12.0655C42.6318 11.2422 42.9611 10.5772 43.6197 10.0705C44.2784 9.55117 45.2031 9.2915 46.3938 9.2915C46.8498 9.2915 47.2677 9.3295 47.6477 9.4055C48.0404 9.46884 48.3761 9.57017 48.6547 9.7095C48.9461 9.83617 49.1677 9.9945 49.3197 10.1845C49.4844 10.3618 49.5668 10.5708 49.5668 10.8115C49.5668 11.0395 49.5161 11.2422 49.4148 11.4195C49.3134 11.5842 49.1931 11.7172 49.0538 11.8185C48.9398 11.7425 48.7877 11.6665 48.5977 11.5905C48.4204 11.5145 48.2177 11.4448 47.9897 11.3815C47.7744 11.3182 47.5401 11.2675 47.2867 11.2295C47.0461 11.1788 46.8054 11.1535 46.5647 11.1535C46.0707 11.1535 45.6844 11.2358 45.4057 11.4005C45.1271 11.5525 44.9877 11.7742 44.9877 12.0655C44.9877 12.2808 45.0637 12.4582 45.2157 12.5975C45.3804 12.7368 45.6591 12.8508 46.0517 12.9395L46.9827 13.1675C48.0341 13.4082 48.7941 13.7628 49.2628 14.2315C49.7314 14.6875 49.9657 15.2892 49.9657 16.0365Z" fill="#1B5773"/>
<path d="M34.6632 16.4165C34.3592 15.7831 33.9982 14.9281 33.5802 13.8515C33.1622 12.7748 32.7442 11.4701 32.3262 9.93747C32.4528 9.78548 32.6302 9.65881 32.8582 9.55747C33.0862 9.44347 33.3332 9.38647 33.5992 9.38647C33.9285 9.38647 34.1945 9.46247 34.3972 9.61447C34.6125 9.76647 34.7835 10.0388 34.9102 10.4315C35.5055 12.3441 36.1832 14.2821 36.9432 16.2455H37.0192C37.1838 15.8275 37.3548 15.3525 37.5322 14.8205C37.7222 14.2885 37.8995 13.7311 38.0642 13.1485C38.2415 12.5658 38.4062 11.9768 38.5582 11.3815C38.7102 10.7861 38.8432 10.2098 38.9572 9.65247C39.1092 9.57647 39.2675 9.51314 39.4322 9.46247C39.6095 9.41181 39.7932 9.38647 39.9832 9.38647C40.3125 9.38647 40.5975 9.46247 40.8382 9.61447C41.0788 9.76647 41.1992 10.0135 41.1992 10.3555C41.1992 10.7355 41.1168 11.2738 40.9522 11.9705C40.7875 12.6545 40.5658 13.3955 40.2872 14.1935C40.0212 14.9788 39.7172 15.7768 39.3752 16.5875C39.0332 17.3855 38.6912 18.0885 38.3492 18.6965C37.6905 19.8618 37.0888 20.7295 36.5442 21.2995C36.0122 21.8821 35.4865 22.1735 34.9672 22.1735C34.5618 22.1735 34.2325 22.0531 33.9792 21.8125C33.7385 21.5845 33.5865 21.2931 33.5232 20.9385C33.7258 20.7611 33.9412 20.5521 34.1692 20.3115C34.3972 20.0835 34.6252 19.8365 34.8532 19.5705C35.0812 19.3045 35.2965 19.0321 35.4992 18.7535C35.7018 18.4748 35.8792 18.2025 36.0312 17.9365C35.9172 17.8985 35.8032 17.8541 35.6892 17.8035C35.5878 17.7401 35.4802 17.6515 35.3662 17.5375C35.2648 17.4235 35.1508 17.2778 35.0242 17.1005C34.9102 16.9231 34.7898 16.6951 34.6632 16.4165Z" fill="#1B5773"/>
<path d="M26.8955 17.0435C27.2629 17.0435 27.5985 17.0119 27.9025 16.9485C28.2065 16.8725 28.4282 16.7839 28.5675 16.6825V14.5735L26.7245 14.7445C26.2179 14.7952 25.8315 14.9092 25.5655 15.0865C25.2995 15.2512 25.1665 15.5172 25.1665 15.8845C25.1665 16.2519 25.2995 16.5369 25.5655 16.7395C25.8442 16.9422 26.2875 17.0435 26.8955 17.0435ZM26.8195 9.31055C28.0609 9.31055 29.0489 9.57655 29.7835 10.1085C30.5309 10.6405 30.9045 11.4639 30.9045 12.5785V16.9675C30.9045 17.2715 30.8285 17.5122 30.6765 17.6895C30.5245 17.8669 30.3345 18.0252 30.1065 18.1645C29.7519 18.3799 29.3022 18.5509 28.7575 18.6775C28.2129 18.8042 27.5922 18.8675 26.8955 18.8675C25.6289 18.8675 24.6282 18.6269 23.8935 18.1455C23.1715 17.6515 22.8105 16.9169 22.8105 15.9415C22.8105 15.0929 23.0765 14.4469 23.6085 14.0035C24.1532 13.5475 24.9385 13.2689 25.9645 13.1675L28.5675 12.9015V12.5595C28.5675 12.0782 28.3902 11.7235 28.0355 11.4955C27.6935 11.2675 27.2059 11.1535 26.5725 11.1535C26.0785 11.1535 25.5972 11.2169 25.1285 11.3435C24.6599 11.4575 24.2419 11.6032 23.8745 11.7805C23.7352 11.6792 23.6149 11.5462 23.5135 11.3815C23.4249 11.2042 23.3805 11.0142 23.3805 10.8115C23.3805 10.5582 23.4375 10.3555 23.5515 10.2035C23.6782 10.0389 23.8745 9.89321 24.1405 9.76655C24.5079 9.61455 24.9259 9.50055 25.3945 9.42455C25.8632 9.34855 26.3382 9.31055 26.8195 9.31055Z" fill="#1B5773"/>
<path d="M15.3548 14.7446V18.5636C15.2408 18.5889 15.0761 18.6206 14.8608 18.6586C14.6581 18.6966 14.4364 18.7156 14.1958 18.7156C13.7144 18.7156 13.3724 18.6269 13.1698 18.4496C12.9798 18.2722 12.8848 17.9746 12.8848 17.5566V8.01857C12.8848 7.7779 12.9481 7.59424 13.0748 7.46757C13.2014 7.3409 13.3788 7.23957 13.6068 7.16357C13.8094 7.10024 14.0311 7.04324 14.2718 6.99257C14.5251 6.9419 14.7848 6.9039 15.0508 6.87857C15.3168 6.84057 15.5828 6.81524 15.8488 6.80257C16.1148 6.7899 16.3681 6.78357 16.6088 6.78357C18.2808 6.78357 19.5348 7.14457 20.3708 7.86657C21.2194 8.5759 21.6438 9.53857 21.6438 10.7546C21.6438 11.9706 21.2321 12.9396 20.4088 13.6616C19.5854 14.3836 18.3948 14.7446 16.8368 14.7446H15.3548ZM16.6848 12.7686C17.4448 12.7686 18.0401 12.6039 18.4708 12.2746C18.9141 11.9452 19.1358 11.4386 19.1358 10.7546C19.1358 10.0959 18.9268 9.6019 18.5088 9.27257C18.1034 8.94324 17.5081 8.77857 16.7228 8.77857C16.1781 8.77857 15.7158 8.81657 15.3358 8.89257V12.7686H16.6848Z" fill="#1B5773"/>
<path d="M1.94043 28.4946C1.86158 28.4946 1.7843 28.4864 1.70996 28.4712C1.48745 28.4255 1.28841 28.3154 1.13379 28.1606C1.08226 28.1091 1.03606 28.0523 0.995117 27.9917C0.933746 27.9008 0.884847 27.8008 0.851562 27.6938C0.829321 27.6224 0.813446 27.5479 0.805664 27.4712C0.801789 27.433 0.799814 27.3942 0.799805 27.355L0.799805 19.0562H4.00684C4.3216 19.0562 4.57715 19.3117 4.57715 19.6265V24.7192H9.67188C9.98662 24.7193 10.2422 24.9748 10.2422 25.2896V28.4946H1.94043Z" fill="#B10239"/>
<path d="M1.94043 28.4946C1.86158 28.4946 1.7843 28.4864 1.70996 28.4712C1.48745 28.4255 1.28841 28.3154 1.13379 28.1606C1.08226 28.1091 1.03606 28.0523 0.995117 27.9917C0.933746 27.9008 0.884847 27.8008 0.851562 27.6938C0.829321 27.6224 0.813446 27.5479 0.805664 27.4712C0.801789 27.433 0.799814 27.3942 0.799805 27.355L0.799805 19.0562H4.00684C4.3216 19.0562 4.57715 19.3117 4.57715 19.6265V24.7192H9.67188C9.98662 24.7193 10.2422 24.9748 10.2422 25.2896V28.4946H1.94043Z" fill="#B10239"/>
<path d="M86.6299 0.178833C87.1807 0.178947 87.6408 0.569573 87.7471 1.08899C87.7622 1.16309 87.7695 1.2399 87.7695 1.31848V9.61731H84.5635C84.2488 9.61731 83.9934 9.36255 83.9932 9.04797V3.95422H78.8984C78.5837 3.95422 78.3281 3.69869 78.3281 3.38391V0.178833H86.6299Z" fill="#B10239"/>
<path d="M86.6299 0.178833C87.1807 0.178947 87.6408 0.569573 87.7471 1.08899C87.7622 1.16309 87.7695 1.2399 87.7695 1.31848V9.61731H84.5635C84.2488 9.61731 83.9934 9.36255 83.9932 9.04797V3.95422H78.8984C78.5837 3.95422 78.3281 3.69869 78.3281 3.38391V0.178833H86.6299Z" fill="#B10239"/>
</svg>
