<svg width="127" height="43" viewBox="0 0 127 43" fill="none" xmlns="http://www.w3.org/2000/svg">
<path d="M121.376 0H109.754C110.262 4.64216 111.346 6.31962 115.394 6.83677H120.009V10.2552C120.371 15.3183 121.975 16.7116 126.846 17.0919V7.69137C127.121 1.67472 125.739 0.210152 121.376 0Z" fill="#B10239"/>
<path d="M5.50248 41.917H17.125C16.6168 37.2748 15.5334 35.5974 11.4847 35.0802H6.86984V31.6618C6.50822 26.5986 4.90357 25.2054 0.0330658 24.8251V34.2256C-0.242376 40.2423 1.13998 41.7068 5.50248 41.917Z" fill="#B10239"/>
<path d="M27.2261 23.7506V15.378C27.2261 15.0801 27.3123 14.8527 27.4848 14.6959C27.6572 14.5235 27.8846 14.3824 28.1668 14.2726C28.6685 14.1001 29.2722 13.9747 29.9777 13.8963C30.6833 13.8179 31.334 13.7787 31.9298 13.7787C34.0308 13.7787 35.6143 14.2334 36.6805 15.1428C37.7467 16.0365 38.2798 17.2438 38.2798 18.7646C38.2798 19.7681 38.0446 20.6461 37.5742 21.3987C37.1038 22.1356 36.4218 22.7157 35.5281 23.1391C34.6501 23.5467 33.5761 23.7506 32.3061 23.7506H27.2261ZM29.037 28.5719C28.3785 28.5719 27.9081 28.4543 27.6259 28.2191C27.3593 27.9682 27.2261 27.5606 27.2261 26.9961V22.2689H30.6127V28.3837C30.4559 28.4151 30.2286 28.4543 29.9307 28.5013C29.6485 28.5483 29.3506 28.5719 29.037 28.5719ZM30.5892 21.093H32.0944C32.9411 21.093 33.6153 20.897 34.117 20.505C34.6187 20.113 34.8696 19.5408 34.8696 18.7882C34.8696 18.0199 34.6344 17.4476 34.164 17.0713C33.6937 16.695 33.0195 16.5069 32.1414 16.5069C31.8279 16.5069 31.5456 16.5147 31.2948 16.5304C31.0439 16.5461 30.8087 16.5774 30.5892 16.6245V21.093ZM44.7803 28.76C43.1968 28.76 41.9346 28.4543 40.9939 27.8428C40.0688 27.2313 39.6063 26.3141 39.6063 25.0911C39.6063 24.0249 39.9355 23.2096 40.594 22.6452C41.2526 22.0808 42.2325 21.7358 43.5339 21.6104L46.6853 21.2811V20.9283C46.6853 20.3639 46.4737 19.9562 46.0503 19.7054C45.627 19.4545 45.0312 19.3291 44.2629 19.3291C43.6671 19.3291 43.0792 19.4075 42.499 19.5643C41.9189 19.7054 41.4015 19.8779 40.9468 20.0817C40.7744 19.9562 40.6254 19.7759 40.5 19.5408C40.3745 19.2899 40.3118 19.0312 40.3118 18.7646C40.3118 18.1375 40.6489 17.6828 41.3231 17.4006C41.7778 17.2124 42.3031 17.0713 42.8989 16.9772C43.4947 16.8832 44.0826 16.8361 44.6627 16.8361C46.2463 16.8361 47.5085 17.1732 48.4492 17.8474C49.4056 18.5059 49.8839 19.5486 49.8839 20.9754V26.3376C49.8839 26.7296 49.7819 27.0432 49.5781 27.2783C49.39 27.4978 49.1469 27.7017 48.849 27.8898C48.3944 28.1564 47.8221 28.368 47.1322 28.5248C46.4423 28.6816 45.6584 28.76 44.7803 28.76ZM44.7803 26.3141C45.188 26.3141 45.5643 26.2749 45.9092 26.1965C46.2698 26.1181 46.5364 26.024 46.7089 25.9143V23.5154L44.5922 23.7035C44.0278 23.7506 43.5887 23.876 43.2752 24.0798C42.9616 24.2836 42.8048 24.5816 42.8048 24.9735C42.8048 25.3812 42.9616 25.7104 43.2752 25.9613C43.5887 26.1965 44.0905 26.3141 44.7803 26.3141ZM54.3424 25.6556C54.0915 25.1382 53.8171 24.5032 53.5192 23.7506C53.2213 22.998 52.9077 22.1199 52.5785 21.1165C52.2492 20.113 51.9043 18.9606 51.5437 17.6593C51.7318 17.4554 51.9748 17.2908 52.2727 17.1654C52.5863 17.0243 52.9234 16.9537 53.284 16.9537C53.7387 16.9537 54.1072 17.0556 54.3894 17.2595C54.6873 17.4476 54.9147 17.8004 55.0714 18.3178C55.4477 19.4937 55.824 20.6618 56.2003 21.822C56.5766 22.9666 56.9686 24.1269 57.3763 25.3028H57.4703C57.7526 24.5972 58.0348 23.7976 58.317 22.9039C58.5992 21.9945 58.8658 21.0538 59.1166 20.0817C59.3675 19.1096 59.5792 18.1845 59.7516 17.3065C59.9711 17.1967 60.1906 17.1105 60.4101 17.0478C60.6453 16.9851 60.8962 16.9537 61.1627 16.9537C61.6174 16.9537 62.0094 17.0556 62.3387 17.2595C62.6679 17.4476 62.8326 17.7769 62.8326 18.2472C62.8326 18.6706 62.762 19.2037 62.6209 19.8465C62.4955 20.4737 62.3151 21.1635 62.08 21.9161C61.8605 22.653 61.6017 23.4213 61.3038 24.2209C61.0059 25.0049 60.6924 25.7653 60.3631 26.5022C60.0338 27.2391 59.6968 27.8977 59.3518 28.4778C58.5365 29.9359 57.7761 31.0256 57.0705 31.7469C56.3806 32.4838 55.6908 32.8522 55.0009 32.8522C54.4678 32.8522 54.0288 32.6876 53.6839 32.3583C53.3389 32.0448 53.1351 31.6371 53.0724 31.1354C53.4016 30.8532 53.7466 30.5161 54.1072 30.1241C54.4835 29.7478 54.8441 29.3401 55.189 28.9011C55.534 28.4621 55.8319 28.0388 56.0827 27.6311C55.8162 27.5527 55.5418 27.3803 55.2596 27.1137C54.9774 26.8472 54.6716 26.3611 54.3424 25.6556ZM73.8456 25.1617C73.8456 26.2906 73.4222 27.1764 72.5756 27.8193C71.7289 28.4621 70.5059 28.7835 68.9067 28.7835C67.621 28.7835 66.5627 28.5954 65.7317 28.2191C64.9164 27.8271 64.5087 27.2862 64.5087 26.5963C64.5087 26.2984 64.5793 26.0319 64.7204 25.7967C64.8615 25.5458 65.034 25.3498 65.2378 25.2087C65.6925 25.4753 66.2099 25.7183 66.79 25.9378C67.3701 26.1573 68.0365 26.267 68.7891 26.267C69.9964 26.267 70.6 25.9064 70.6 25.1852C70.6 24.8873 70.4903 24.6521 70.2707 24.4796C70.0512 24.2915 69.7063 24.1504 69.2359 24.0563L68.107 23.7741C66.8998 23.5232 65.9982 23.1234 65.4024 22.5746C64.8066 22.0259 64.5087 21.2811 64.5087 20.3404C64.5087 19.2742 64.9399 18.4197 65.8022 17.7769C66.6646 17.134 67.8327 16.8126 69.3065 16.8126C70.0748 16.8126 70.7568 16.891 71.3526 17.0478C71.9641 17.1889 72.4423 17.4084 72.7872 17.7063C73.1478 18.0042 73.3282 18.3648 73.3282 18.7882C73.3282 19.0861 73.2654 19.3526 73.14 19.5878C73.0146 19.8073 72.8578 19.9876 72.6696 20.1287C72.4972 20.019 72.2385 19.9014 71.8935 19.7759C71.5486 19.6505 71.1645 19.5486 70.7411 19.4702C70.3335 19.3761 69.9415 19.3291 69.5652 19.3291C69.0008 19.3291 68.5461 19.4153 68.2011 19.5878C67.8719 19.7603 67.7072 20.0111 67.7072 20.3404C67.7072 20.5599 67.8013 20.7559 67.9895 20.9283C68.1776 21.0851 68.5069 21.2184 68.9772 21.3282L70.012 21.5633C71.3761 21.8769 72.3561 22.3238 72.9519 22.9039C73.5477 23.484 73.8456 24.2366 73.8456 25.1617ZM76.1165 22.1983H79.3856V24.8089C79.3856 25.2793 79.5267 25.6164 79.8089 25.8202C80.1068 26.024 80.5144 26.1259 81.0319 26.1259C81.2827 26.1259 81.5414 26.1024 81.808 26.0554C82.0902 25.9927 82.3332 25.9221 82.537 25.8437C82.6625 25.9691 82.7722 26.1338 82.8663 26.3376C82.9604 26.5257 83.0074 26.7531 83.0074 27.0196C83.0074 27.5057 82.7879 27.9133 82.3489 28.2426C81.9256 28.5719 81.22 28.7365 80.2322 28.7365C78.9465 28.7365 77.9353 28.4464 77.1983 27.8663C76.4771 27.2862 76.1165 26.3454 76.1165 25.0441V22.1983ZM78.1626 19.9641V17.4241H82.7252C82.8036 17.5495 82.8741 17.722 82.9369 17.9415C83.0152 18.161 83.0544 18.404 83.0544 18.6706C83.0544 19.1096 82.9525 19.4388 82.7487 19.6583C82.5449 19.8622 82.2705 19.9641 81.9256 19.9641H78.1626ZM79.3856 22.8098H76.1165V14.3432C76.2576 14.2961 76.4614 14.2491 76.728 14.2021C77.0102 14.155 77.3003 14.1315 77.5982 14.1315C78.2096 14.1315 78.6565 14.2413 78.9387 14.4608C79.2366 14.6803 79.3856 15.0801 79.3856 15.6602V22.8098ZM89.7959 28.76C88.2123 28.76 86.9502 28.4543 86.0094 27.8428C85.0844 27.2313 84.6218 26.3141 84.6218 25.0911C84.6218 24.0249 84.9511 23.2096 85.6096 22.6452C86.2681 22.0808 87.2481 21.7358 88.5494 21.6104L91.7009 21.2811V20.9283C91.7009 20.3639 91.4892 19.9562 91.0659 19.7054C90.6426 19.4545 90.0468 19.3291 89.2785 19.3291C88.6827 19.3291 88.0947 19.4075 87.5146 19.5643C86.9345 19.7054 86.4171 19.8779 85.9624 20.0817C85.7899 19.9562 85.641 19.7759 85.5155 19.5408C85.3901 19.2899 85.3274 19.0312 85.3274 18.7646C85.3274 18.1375 85.6645 17.6828 86.3387 17.4006C86.7934 17.2124 87.3186 17.0713 87.9144 16.9772C88.5102 16.8832 89.0982 16.8361 89.6783 16.8361C91.2619 16.8361 92.5241 17.1732 93.4648 17.8474C94.4212 18.5059 94.8994 19.5486 94.8994 20.9754V26.3376C94.8994 26.7296 94.7975 27.0432 94.5937 27.2783C94.4055 27.4978 94.1625 27.7017 93.8646 27.8898C93.4099 28.1564 92.8376 28.368 92.1478 28.5248C91.4579 28.6816 90.6739 28.76 89.7959 28.76ZM89.7959 26.3141C90.2036 26.3141 90.5799 26.2749 90.9248 26.1965C91.2854 26.1181 91.552 26.024 91.7244 25.9143V23.5154L89.6078 23.7035C89.0433 23.7506 88.6043 23.876 88.2907 24.0798C87.9772 24.2836 87.8204 24.5816 87.8204 24.9735C87.8204 25.3812 87.9772 25.7104 88.2907 25.9613C88.6043 26.1965 89.106 26.3141 89.7959 26.3141ZM97.7285 22.1983H100.998V24.8089C100.998 25.2793 101.139 25.6164 101.421 25.8202C101.719 26.024 102.127 26.1259 102.644 26.1259C102.895 26.1259 103.153 26.1024 103.42 26.0554C103.702 25.9927 103.945 25.9221 104.149 25.8437C104.275 25.9691 104.384 26.1338 104.478 26.3376C104.572 26.5257 104.619 26.7531 104.619 27.0196C104.619 27.5057 104.4 27.9133 103.961 28.2426C103.538 28.5719 102.832 28.7365 101.844 28.7365C100.559 28.7365 99.5473 28.4464 98.8104 27.8663C98.0892 27.2862 97.7285 26.3454 97.7285 25.0441V22.1983ZM99.7747 19.9641V17.4241H104.337C104.416 17.5495 104.486 17.722 104.549 17.9415C104.627 18.161 104.667 18.404 104.667 18.6706C104.667 19.1096 104.565 19.4388 104.361 19.6583C104.157 19.8622 103.883 19.9641 103.538 19.9641H99.7747ZM100.998 22.8098H97.7285V14.3432C97.8697 14.2961 98.0735 14.2491 98.34 14.2021C98.6222 14.155 98.9123 14.1315 99.2102 14.1315C99.8217 14.1315 100.269 14.2413 100.551 14.4608C100.849 14.6803 100.998 15.0801 100.998 15.6602V22.8098Z" fill="white"/>
</svg>
