<svg width="88" height="29" viewBox="0 0 88 29" fill="none" xmlns="http://www.w3.org/2000/svg">
<path d="M71.5859 15.7894C71.5859 16.1947 71.7063 16.486 71.9469 16.6634C72.2003 16.8407 72.5486 16.9294 72.9919 16.9294C73.2073 16.9294 73.4226 16.904 73.6379 16.8534C73.8659 16.8027 74.0686 16.7394 74.2459 16.6634C74.3473 16.7647 74.4296 16.8914 74.4929 17.0434C74.5689 17.1827 74.6069 17.3474 74.6069 17.5374C74.6069 17.9174 74.4359 18.234 74.0939 18.4874C73.7519 18.728 73.2009 18.8484 72.4409 18.8484C71.4403 18.8484 70.6486 18.6267 70.0659 18.1834C69.4959 17.7274 69.2109 16.98 69.2109 15.9414V7.22036C69.3123 7.19503 69.4579 7.16336 69.6479 7.12536C69.8506 7.08736 70.0659 7.06836 70.2939 7.06836C70.7373 7.06836 71.0603 7.15069 71.2629 7.31536C71.4783 7.48003 71.5859 7.77136 71.5859 8.18936V9.76636H74.3789C74.4423 9.86769 74.4993 10.0007 74.5499 10.1654C74.6006 10.33 74.6259 10.5074 74.6259 10.6974C74.6259 11.0267 74.5499 11.2674 74.3979 11.4194C74.2459 11.5714 74.0433 11.6474 73.7899 11.6474H71.5859V15.7894Z" fill="#1B5773"/>
<path d="M62.7998 17.0434C63.1672 17.0434 63.5028 17.0118 63.8068 16.9484C64.1108 16.8724 64.3325 16.7838 64.4718 16.6824V14.5734L62.6288 14.7444C62.1222 14.7951 61.7358 14.9091 61.4698 15.0864C61.2038 15.2511 61.0708 15.5171 61.0708 15.8844C61.0708 16.2518 61.2038 16.5368 61.4698 16.7394C61.7485 16.9421 62.1918 17.0434 62.7998 17.0434ZM62.7238 9.31042C63.9652 9.31042 64.9532 9.57643 65.6878 10.1084C66.4352 10.6404 66.8088 11.4638 66.8088 12.5784V16.9674C66.8088 17.2714 66.7328 17.5121 66.5808 17.6894C66.4288 17.8668 66.2388 18.0251 66.0108 18.1644C65.6562 18.3798 65.2065 18.5508 64.6618 18.6774C64.1172 18.8041 63.4965 18.8674 62.7998 18.8674C61.5332 18.8674 60.5325 18.6268 59.7978 18.1454C59.0758 17.6514 58.7148 16.9168 58.7148 15.9414C58.7148 15.0928 58.9808 14.4468 59.5128 14.0034C60.0575 13.5474 60.8428 13.2688 61.8688 13.1674L64.4718 12.9014V12.5594C64.4718 12.0781 64.2945 11.7234 63.9398 11.4954C63.5978 11.2674 63.1102 11.1534 62.4768 11.1534C61.9828 11.1534 61.5015 11.2168 61.0328 11.3434C60.5642 11.4574 60.1462 11.6031 59.7788 11.7804C59.6395 11.6791 59.5192 11.5461 59.4178 11.3814C59.3292 11.2041 59.2848 11.0141 59.2848 10.8114C59.2848 10.5581 59.3418 10.3554 59.4558 10.2034C59.5825 10.0388 59.7788 9.89309 60.0448 9.76643C60.4122 9.61443 60.8302 9.50043 61.2988 9.42443C61.7675 9.34842 62.2425 9.31042 62.7238 9.31042Z" fill="#1B5773"/>
<path d="M54.293 15.7894C54.293 16.1947 54.4133 16.486 54.654 16.6634C54.9073 16.8407 55.2556 16.9294 55.699 16.9294C55.9143 16.9294 56.1296 16.904 56.345 16.8534C56.573 16.8027 56.7756 16.7394 56.953 16.6634C57.0543 16.7647 57.1366 16.8914 57.2 17.0434C57.276 17.1827 57.314 17.3474 57.314 17.5374C57.314 17.9174 57.143 18.234 56.801 18.4874C56.459 18.728 55.908 18.8484 55.148 18.8484C54.1473 18.8484 53.3556 18.6267 52.773 18.1834C52.203 17.7274 51.918 16.98 51.918 15.9414V7.22036C52.0193 7.19503 52.165 7.16336 52.355 7.12536C52.5576 7.08736 52.773 7.06836 53.001 7.06836C53.4443 7.06836 53.7673 7.15069 53.97 7.31536C54.1853 7.48003 54.293 7.77136 54.293 8.18936V9.76636H57.086C57.1493 9.86769 57.2063 10.0007 57.257 10.1654C57.3076 10.33 57.333 10.5074 57.333 10.6974C57.333 11.0267 57.257 11.2674 57.105 11.4194C56.953 11.5714 56.7503 11.6474 56.497 11.6474H54.293V15.7894Z" fill="#1B5773"/>
<path d="M49.9657 16.0364C49.9657 16.923 49.6364 17.6197 48.9778 18.1264C48.3191 18.6204 47.3564 18.8674 46.0898 18.8674C45.5704 18.8674 45.0954 18.8294 44.6648 18.7534C44.2468 18.6774 43.8794 18.5697 43.5627 18.4304C43.2587 18.2784 43.0181 18.101 42.8407 17.8984C42.6761 17.683 42.5938 17.4487 42.5938 17.1954C42.5938 16.9547 42.6444 16.7457 42.7458 16.5684C42.8598 16.391 43.0054 16.2454 43.1827 16.1314C43.5374 16.3594 43.9427 16.562 44.3987 16.7394C44.8674 16.9167 45.4058 17.0054 46.0138 17.0054C46.5331 17.0054 46.9258 16.923 47.1918 16.7584C47.4578 16.581 47.5907 16.3404 47.5907 16.0364C47.5907 15.517 47.2108 15.175 46.4508 15.0104L45.3868 14.7634C44.4494 14.548 43.7527 14.225 43.2967 13.7944C42.8534 13.3637 42.6318 12.7874 42.6318 12.0654C42.6318 11.242 42.9611 10.577 43.6197 10.0704C44.2784 9.55105 45.2031 9.29138 46.3938 9.29138C46.8498 9.29138 47.2677 9.32938 47.6477 9.40538C48.0404 9.46872 48.3761 9.57005 48.6547 9.70938C48.9461 9.83605 49.1677 9.99438 49.3197 10.1844C49.4844 10.3617 49.5668 10.5707 49.5668 10.8114C49.5668 11.0394 49.5161 11.242 49.4148 11.4194C49.3134 11.584 49.1931 11.717 49.0538 11.8184C48.9398 11.7424 48.7877 11.6664 48.5977 11.5904C48.4204 11.5144 48.2177 11.4447 47.9897 11.3814C47.7744 11.318 47.5401 11.2674 47.2867 11.2294C47.0461 11.1787 46.8054 11.1534 46.5647 11.1534C46.0707 11.1534 45.6844 11.2357 45.4057 11.4004C45.1271 11.5524 44.9877 11.774 44.9877 12.0654C44.9877 12.2807 45.0637 12.458 45.2157 12.5974C45.3804 12.7367 45.6591 12.8507 46.0517 12.9394L46.9827 13.1674C48.0341 13.408 48.7941 13.7627 49.2628 14.2314C49.7314 14.6874 49.9657 15.289 49.9657 16.0364Z" fill="#1B5773"/>
<path d="M34.6632 16.4164C34.3592 15.783 33.9982 14.928 33.5802 13.8514C33.1622 12.7747 32.7442 11.47 32.3262 9.93735C32.4528 9.78535 32.6302 9.65869 32.8582 9.55735C33.0862 9.44335 33.3332 9.38635 33.5992 9.38635C33.9285 9.38635 34.1945 9.46235 34.3972 9.61435C34.6125 9.76635 34.7835 10.0387 34.9102 10.4314C35.5055 12.344 36.1832 14.282 36.9432 16.2454H37.0192C37.1838 15.8274 37.3548 15.3524 37.5322 14.8204C37.7222 14.2884 37.8995 13.731 38.0642 13.1484C38.2415 12.5657 38.4062 11.9767 38.5582 11.3814C38.7102 10.786 38.8432 10.2097 38.9572 9.65235C39.1092 9.57635 39.2675 9.51302 39.4322 9.46235C39.6095 9.41169 39.7932 9.38635 39.9832 9.38635C40.3125 9.38635 40.5975 9.46235 40.8382 9.61435C41.0788 9.76635 41.1992 10.0134 41.1992 10.3554C41.1992 10.7354 41.1168 11.2737 40.9522 11.9704C40.7875 12.6544 40.5658 13.3954 40.2872 14.1934C40.0212 14.9787 39.7172 15.7767 39.3752 16.5874C39.0332 17.3854 38.6912 18.0884 38.3492 18.6964C37.6905 19.8617 37.0888 20.7294 36.5442 21.2994C36.0122 21.882 35.4865 22.1734 34.9672 22.1734C34.5618 22.1734 34.2325 22.053 33.9792 21.8124C33.7385 21.5844 33.5865 21.293 33.5232 20.9384C33.7258 20.761 33.9412 20.552 34.1692 20.3114C34.3972 20.0834 34.6252 19.8364 34.8532 19.5704C35.0812 19.3044 35.2965 19.032 35.4992 18.7534C35.7018 18.4747 35.8792 18.2024 36.0312 17.9364C35.9172 17.8984 35.8032 17.854 35.6892 17.8034C35.5878 17.74 35.4802 17.6514 35.3662 17.5374C35.2648 17.4234 35.1508 17.2777 35.0242 17.1004C34.9102 16.923 34.7898 16.695 34.6632 16.4164Z" fill="#1B5773"/>
<path d="M26.8955 17.0434C27.2629 17.0434 27.5985 17.0118 27.9025 16.9484C28.2065 16.8724 28.4282 16.7838 28.5675 16.6824V14.5734L26.7245 14.7444C26.2179 14.7951 25.8315 14.9091 25.5655 15.0864C25.2995 15.2511 25.1665 15.5171 25.1665 15.8844C25.1665 16.2518 25.2995 16.5368 25.5655 16.7394C25.8442 16.9421 26.2875 17.0434 26.8955 17.0434ZM26.8195 9.31042C28.0609 9.31042 29.0489 9.57643 29.7835 10.1084C30.5309 10.6404 30.9045 11.4638 30.9045 12.5784V16.9674C30.9045 17.2714 30.8285 17.5121 30.6765 17.6894C30.5245 17.8668 30.3345 18.0251 30.1065 18.1644C29.7519 18.3798 29.3022 18.5508 28.7575 18.6774C28.2129 18.8041 27.5922 18.8674 26.8955 18.8674C25.6289 18.8674 24.6282 18.6268 23.8935 18.1454C23.1715 17.6514 22.8105 16.9168 22.8105 15.9414C22.8105 15.0928 23.0765 14.4468 23.6085 14.0034C24.1532 13.5474 24.9385 13.2688 25.9645 13.1674L28.5675 12.9014V12.5594C28.5675 12.0781 28.3902 11.7234 28.0355 11.4954C27.6935 11.2674 27.2059 11.1534 26.5725 11.1534C26.0785 11.1534 25.5972 11.2168 25.1285 11.3434C24.6599 11.4574 24.2419 11.6031 23.8745 11.7804C23.7352 11.6791 23.6149 11.5461 23.5135 11.3814C23.4249 11.2041 23.3805 11.0141 23.3805 10.8114C23.3805 10.5581 23.4375 10.3554 23.5515 10.2034C23.6782 10.0388 23.8745 9.89309 24.1405 9.76643C24.5079 9.61443 24.9259 9.50043 25.3945 9.42443C25.8632 9.34842 26.3382 9.31042 26.8195 9.31042Z" fill="#1B5773"/>
<path d="M15.3548 14.7444V18.5634C15.2408 18.5888 15.0761 18.6204 14.8608 18.6584C14.6581 18.6964 14.4364 18.7154 14.1958 18.7154C13.7144 18.7154 13.3724 18.6268 13.1698 18.4494C12.9798 18.2721 12.8848 17.9744 12.8848 17.5564V8.01845C12.8848 7.77778 12.9481 7.59411 13.0748 7.46745C13.2014 7.34078 13.3788 7.23945 13.6068 7.16345C13.8094 7.10011 14.0311 7.04311 14.2718 6.99245C14.5251 6.94178 14.7848 6.90378 15.0508 6.87845C15.3168 6.84045 15.5828 6.81511 15.8488 6.80245C16.1148 6.78978 16.3681 6.78345 16.6088 6.78345C18.2808 6.78345 19.5348 7.14445 20.3708 7.86645C21.2194 8.57578 21.6438 9.53845 21.6438 10.7544C21.6438 11.9704 21.2321 12.9394 20.4088 13.6614C19.5854 14.3834 18.3948 14.7444 16.8368 14.7444H15.3548ZM16.6848 12.7684C17.4448 12.7684 18.0401 12.6038 18.4708 12.2744C18.9141 11.9451 19.1358 11.4384 19.1358 10.7544C19.1358 10.0958 18.9268 9.60178 18.5088 9.27245C18.1034 8.94311 17.5081 8.77845 16.7228 8.77845C16.1781 8.77845 15.7158 8.81645 15.3358 8.89245V12.7684H16.6848Z" fill="#1B5773"/>
</svg>
