<svg width="98" height="30" viewBox="0 0 98 30" fill="none" xmlns="http://www.w3.org/2000/svg">
<path d="M83.0879 18.5699C83.0879 18.9752 83.2082 19.2665 83.4489 19.4439C83.7022 19.6212 84.0506 19.7099 84.4939 19.7099C84.7092 19.7099 84.9246 19.6845 85.1399 19.6339C85.3679 19.5832 85.5706 19.5199 85.7479 19.4439C85.8492 19.5452 85.9316 19.6719 85.9949 19.8239C86.0709 19.9632 86.1089 20.1279 86.1089 20.3179C86.1089 20.6979 85.9379 21.0145 85.5959 21.2679C85.2539 21.5085 84.7029 21.6289 83.9429 21.6289C82.9422 21.6289 82.1506 21.4072 81.5679 20.9639C80.9979 20.5079 80.7129 19.7605 80.7129 18.7219V10.0009C80.8142 9.97554 80.9599 9.94388 81.1499 9.90588C81.3526 9.86788 81.5679 9.84888 81.7959 9.84888C82.2392 9.84888 82.5622 9.93121 82.7649 10.0959C82.9802 10.2605 83.0879 10.5519 83.0879 10.9699V12.5469H85.8809C85.9442 12.6482 86.0012 12.7812 86.0519 12.9459C86.1026 13.1105 86.1279 13.2879 86.1279 13.4779C86.1279 13.8072 86.0519 14.0479 85.8999 14.1999C85.7479 14.3519 85.5452 14.4279 85.2919 14.4279H83.0879V18.5699Z" fill="#1B5773"/>
<path d="M74.3018 19.8239C74.6691 19.8239 75.0048 19.7923 75.3088 19.7289C75.6128 19.6529 75.8345 19.5643 75.9738 19.4629V17.3539L74.1308 17.5249C73.6241 17.5756 73.2378 17.6896 72.9718 17.8669C72.7058 18.0316 72.5728 18.2976 72.5728 18.6649C72.5728 19.0323 72.7058 19.3173 72.9718 19.5199C73.2505 19.7226 73.6938 19.8239 74.3018 19.8239ZM74.2258 12.0909C75.4671 12.0909 76.4551 12.3569 77.1898 12.8889C77.9371 13.4209 78.3108 14.2443 78.3108 15.3589V19.7479C78.3108 20.0519 78.2348 20.2926 78.0828 20.4699C77.9308 20.6473 77.7408 20.8056 77.5128 20.9449C77.1581 21.1603 76.7085 21.3313 76.1638 21.4579C75.6191 21.5846 74.9985 21.6479 74.3018 21.6479C73.0351 21.6479 72.0345 21.4073 71.2998 20.9259C70.5778 20.4319 70.2168 19.6973 70.2168 18.7219C70.2168 17.8733 70.4828 17.2273 71.0148 16.7839C71.5595 16.3279 72.3448 16.0493 73.3708 15.9479L75.9738 15.6819V15.3399C75.9738 14.8586 75.7965 14.5039 75.4418 14.2759C75.0998 14.0479 74.6121 13.9339 73.9788 13.9339C73.4848 13.9339 73.0035 13.9973 72.5348 14.1239C72.0661 14.2379 71.6481 14.3836 71.2808 14.5609C71.1415 14.4596 71.0211 14.3266 70.9198 14.1619C70.8311 13.9846 70.7868 13.7946 70.7868 13.5919C70.7868 13.3386 70.8438 13.1359 70.9578 12.9839C71.0845 12.8193 71.2808 12.6736 71.5468 12.5469C71.9141 12.3949 72.3321 12.2809 72.8008 12.2049C73.2695 12.1289 73.7445 12.0909 74.2258 12.0909Z" fill="#1B5773"/>
<path d="M65.7969 18.5699C65.7969 18.9752 65.9172 19.2665 66.1579 19.4439C66.4112 19.6212 66.7595 19.7099 67.2029 19.7099C67.4182 19.7099 67.6335 19.6845 67.8489 19.6339C68.0769 19.5832 68.2795 19.5199 68.4569 19.4439C68.5582 19.5452 68.6405 19.6719 68.7039 19.8239C68.7799 19.9632 68.8179 20.1279 68.8179 20.3179C68.8179 20.6979 68.6469 21.0145 68.3049 21.2679C67.9629 21.5085 67.4119 21.6289 66.6519 21.6289C65.6512 21.6289 64.8595 21.4072 64.2769 20.9639C63.7069 20.5079 63.4219 19.7605 63.4219 18.7219V10.0009C63.5232 9.97554 63.6689 9.94388 63.8589 9.90588C64.0615 9.86788 64.2769 9.84888 64.5049 9.84888C64.9482 9.84888 65.2712 9.93121 65.4739 10.0959C65.6892 10.2605 65.7969 10.5519 65.7969 10.9699V12.5469H68.5899C68.6532 12.6482 68.7102 12.7812 68.7609 12.9459C68.8115 13.1105 68.8369 13.2879 68.8369 13.4779C68.8369 13.8072 68.7609 14.0479 68.6089 14.1999C68.4569 14.3519 68.2542 14.4279 68.0009 14.4279H65.7969V18.5699Z" fill="#1B5773"/>
<path d="M61.4697 18.8169C61.4697 19.7036 61.1403 20.4002 60.4817 20.9069C59.823 21.4009 58.8603 21.6479 57.5937 21.6479C57.0743 21.6479 56.5993 21.6099 56.1687 21.5339C55.7507 21.4579 55.3833 21.3502 55.0667 21.2109C54.7627 21.0589 54.522 20.8816 54.3447 20.6789C54.18 20.4636 54.0977 20.2292 54.0977 19.9759C54.0977 19.7352 54.1483 19.5262 54.2497 19.3489C54.3637 19.1716 54.5093 19.0259 54.6867 18.9119C55.0413 19.1399 55.4467 19.3426 55.9027 19.5199C56.3713 19.6972 56.9097 19.7859 57.5177 19.7859C58.037 19.7859 58.4297 19.7036 58.6957 19.5389C58.9617 19.3616 59.0947 19.1209 59.0947 18.8169C59.0947 18.2976 58.7147 17.9556 57.9547 17.7909L56.8907 17.5439C55.9533 17.3286 55.2567 17.0056 54.8007 16.5749C54.3573 16.1442 54.1357 15.5679 54.1357 14.8459C54.1357 14.0226 54.465 13.3576 55.1237 12.8509C55.7823 12.3316 56.707 12.0719 57.8977 12.0719C58.3537 12.0719 58.7717 12.1099 59.1517 12.1859C59.5443 12.2492 59.88 12.3506 60.1587 12.4899C60.45 12.6166 60.6717 12.7749 60.8237 12.9649C60.9883 13.1422 61.0707 13.3512 61.0707 13.5919C61.0707 13.8199 61.02 14.0226 60.9187 14.1999C60.8173 14.3646 60.697 14.4976 60.5577 14.5989C60.4437 14.5229 60.2917 14.4469 60.1017 14.3709C59.9243 14.2949 59.7217 14.2252 59.4937 14.1619C59.2783 14.0986 59.044 14.0479 58.7907 14.0099C58.55 13.9592 58.3093 13.9339 58.0687 13.9339C57.5747 13.9339 57.1883 14.0162 56.9097 14.1809C56.631 14.3329 56.4917 14.5546 56.4917 14.8459C56.4917 15.0612 56.5677 15.2386 56.7197 15.3779C56.8843 15.5172 57.163 15.6312 57.5557 15.7199L58.4867 15.9479C59.538 16.1886 60.298 16.5432 60.7667 17.0119C61.2353 17.4679 61.4697 18.0696 61.4697 18.8169Z" fill="#1B5773"/>
<path d="M46.2104 17.9429C46.3877 18.5889 46.7171 19.0576 47.1984 19.3489C47.6797 19.6403 48.2751 19.7859 48.9844 19.7859C49.5164 19.7859 50.0041 19.7099 50.4474 19.5579C50.9034 19.3933 51.2707 19.2223 51.5494 19.0449C51.7267 19.1463 51.8724 19.2856 51.9864 19.4629C52.1004 19.6403 52.1574 19.8303 52.1574 20.0329C52.1574 20.2863 52.0687 20.5143 51.8914 20.7169C51.7267 20.9069 51.4924 21.0716 51.1884 21.2109C50.8971 21.3503 50.5487 21.4579 50.1434 21.5339C49.7381 21.6099 49.3011 21.6479 48.8324 21.6479C48.0851 21.6479 47.4011 21.5466 46.7804 21.3439C46.1724 21.1413 45.6467 20.8373 45.2034 20.4319C44.7727 20.0139 44.4307 19.5009 44.1774 18.8929C43.9367 18.2849 43.8164 17.5756 43.8164 16.7649C43.8164 15.9796 43.9367 15.2956 44.1774 14.7129C44.4181 14.1303 44.7411 13.6426 45.1464 13.2499C45.5644 12.8573 46.0457 12.5659 46.5904 12.3759C47.1351 12.1859 47.7114 12.0909 48.3194 12.0909C48.9401 12.0909 49.5101 12.1923 50.0294 12.3949C50.5487 12.5849 50.9921 12.8573 51.3594 13.2119C51.7267 13.5539 52.0117 13.9719 52.2144 14.4659C52.4297 14.9473 52.5374 15.4729 52.5374 16.0429C52.5374 16.3976 52.4424 16.6636 52.2524 16.8409C52.0751 17.0183 51.8217 17.1323 51.4924 17.1829L46.2104 17.9429ZM48.3194 13.8959C47.6987 13.8959 47.1794 14.1049 46.7614 14.5229C46.3434 14.9283 46.1091 15.5109 46.0584 16.2709L50.2764 15.6439C50.2257 15.1753 50.0421 14.7699 49.7254 14.4279C49.4087 14.0733 48.9401 13.8959 48.3194 13.8959Z" fill="#1B5773"/>
<path d="M41.8403 21.3439C41.739 21.3693 41.587 21.4009 41.3843 21.4389C41.1943 21.4769 40.9853 21.4959 40.7573 21.4959C40.3013 21.4959 39.9656 21.4136 39.7503 21.2489C39.5476 21.0843 39.4463 20.7929 39.4463 20.3749V15.4349C39.4463 14.9283 39.307 14.5609 39.0283 14.3329C38.7496 14.1049 38.3823 13.9909 37.9263 13.9909C37.6223 13.9909 37.3246 14.0479 37.0333 14.1619C36.7546 14.2759 36.5076 14.4279 36.2923 14.6179C36.3303 14.7953 36.3493 14.9726 36.3493 15.1499V21.3439C36.248 21.3693 36.096 21.4009 35.8933 21.4389C35.7033 21.4769 35.4943 21.4959 35.2663 21.4959C34.8103 21.4959 34.4746 21.4136 34.2593 21.2489C34.0566 21.0843 33.9553 20.7929 33.9553 20.3749V15.4349C33.9553 14.9283 33.8096 14.5609 33.5183 14.3329C33.227 14.1049 32.8533 13.9909 32.3973 13.9909C32.0806 13.9909 31.7893 14.0416 31.5233 14.1429C31.2573 14.2443 31.0356 14.3456 30.8583 14.4469V21.3439C30.7443 21.3693 30.5923 21.4009 30.4023 21.4389C30.2123 21.4769 29.997 21.4959 29.7563 21.4959C29.313 21.4959 28.9836 21.4136 28.7683 21.2489C28.553 21.0843 28.4453 20.7929 28.4453 20.3749V14.2759C28.4453 13.9846 28.5086 13.7439 28.6353 13.5539C28.762 13.3513 28.9583 13.1613 29.2243 12.9839C29.6043 12.7306 30.0856 12.5216 30.6683 12.3569C31.251 12.1796 31.8526 12.0909 32.4733 12.0909C33.626 12.0909 34.5633 12.4013 35.2853 13.0219C35.6526 12.7559 36.0706 12.5343 36.5393 12.3569C37.0206 12.1796 37.5843 12.0909 38.2303 12.0909C38.7243 12.0909 39.193 12.1543 39.6363 12.2809C40.0796 12.3949 40.4596 12.5849 40.7763 12.8509C41.1056 13.1169 41.3653 13.4589 41.5553 13.8769C41.7453 14.2823 41.8403 14.7699 41.8403 15.3399V21.3439Z" fill="#1B5773"/>
<path d="M23.567 12.4329C23.6683 12.4076 23.814 12.3759 24.004 12.3379C24.2066 12.2999 24.422 12.2809 24.65 12.2809C25.106 12.2809 25.4353 12.3632 25.638 12.5279C25.8533 12.6926 25.961 12.9839 25.961 13.4019V21.3439C25.8596 21.3692 25.7076 21.4009 25.505 21.4389C25.315 21.4769 25.106 21.4959 24.878 21.4959C24.422 21.4959 24.0863 21.4136 23.871 21.2489C23.6683 21.0842 23.567 20.7929 23.567 20.3749V12.4329ZM23.377 9.6779C23.377 9.31057 23.5036 9.00023 23.757 8.7469C24.023 8.4809 24.3586 8.3479 24.764 8.3479C25.1693 8.3479 25.4986 8.4809 25.752 8.7469C26.0053 9.00023 26.132 9.31057 26.132 9.6779C26.132 10.0579 26.0053 10.3809 25.752 10.6469C25.4986 10.9002 25.1693 11.0269 24.764 11.0269C24.3586 11.0269 24.023 10.9002 23.757 10.6469C23.5036 10.3809 23.377 10.0579 23.377 9.6779Z" fill="#1B5773"/>
<path d="M21.6829 9.82996C21.7462 9.93129 21.8032 10.0706 21.8539 10.248C21.9172 10.4126 21.9489 10.5963 21.9489 10.799C21.9489 11.141 21.8665 11.4006 21.7019 11.578C21.5499 11.7553 21.3345 11.844 21.0559 11.844H18.4339V21.344C18.3325 21.3693 18.1742 21.401 17.9589 21.439C17.7435 21.477 17.5219 21.496 17.2939 21.496C16.8125 21.496 16.4705 21.4073 16.2679 21.23C16.0652 21.0526 15.9639 20.755 15.9639 20.337V11.844H12.7719C12.7085 11.73 12.6452 11.5906 12.5819 11.426C12.5312 11.2613 12.5059 11.0776 12.5059 10.875C12.5059 10.5203 12.5819 10.2606 12.7339 10.096C12.8985 9.91862 13.1202 9.82996 13.3989 9.82996H21.6829Z" fill="#1B5773"/>
<path d="M1.56152 29.0142C1.48268 29.0142 1.40539 29.006 1.33105 28.9907C1.10855 28.9451 0.909502 28.8349 0.754883 28.6802C0.703352 28.6286 0.65715 28.5719 0.616211 28.5112C0.55484 28.4204 0.50594 28.3203 0.472656 28.2134C0.450415 28.1419 0.43454 28.0675 0.426758 27.9907C0.422883 27.9525 0.420908 27.9137 0.420898 27.8745L0.420898 19.5757H3.62793C3.9427 19.5757 4.19824 19.8312 4.19824 20.146V25.2388H9.29297C9.60772 25.2388 9.86328 25.4943 9.86328 25.8091V29.0142H1.56152Z" fill="#B10239"/>
<path d="M1.56152 29.0142C1.48268 29.0142 1.40539 29.006 1.33105 28.9907C1.10855 28.9451 0.909502 28.8349 0.754883 28.6802C0.703352 28.6286 0.65715 28.5719 0.616211 28.5112C0.55484 28.4204 0.50594 28.3203 0.472656 28.2134C0.450415 28.1419 0.43454 28.0675 0.426758 27.9907C0.422883 27.9525 0.420908 27.9137 0.420898 27.8745L0.420898 19.5757H3.62793C3.9427 19.5757 4.19824 19.8312 4.19824 20.146V25.2388H9.29297C9.60772 25.2388 9.86328 25.4943 9.86328 25.8091V29.0142H1.56152Z" fill="#B10239"/>
<path d="M96.251 0.698364C96.8018 0.698478 97.2619 1.0891 97.3682 1.60852C97.3833 1.68262 97.3906 1.75943 97.3906 1.83801V10.1368H94.1846C93.8699 10.1368 93.6145 9.88208 93.6143 9.5675V4.47375H88.5195C88.2048 4.47375 87.9492 4.21822 87.9492 3.90344V0.698364H96.251Z" fill="#B10239"/>
<path d="M96.251 0.698364C96.8018 0.698478 97.2619 1.0891 97.3682 1.60852C97.3833 1.68262 97.3906 1.75943 97.3906 1.83801V10.1368H94.1846C93.8699 10.1368 93.6145 9.88208 93.6143 9.5675V4.47375H88.5195C88.2048 4.47375 87.9492 4.21822 87.9492 3.90344V0.698364H96.251Z" fill="#B10239"/>
</svg>
