<svg width="127" height="43" viewBox="0 0 127 43" fill="none" xmlns="http://www.w3.org/2000/svg">
<path d="M121.376 0H109.754C110.262 4.64216 111.346 6.31962 115.394 6.83677H120.009V10.2552C120.371 15.3183 121.975 16.7116 126.846 17.0919V7.69137C127.121 1.67472 125.739 0.210152 121.376 0Z" fill="#B10239"/>
<path d="M5.50248 41.917H17.125C16.6168 37.2748 15.5334 35.5974 11.4847 35.0802H6.86984V31.6618C6.50822 26.5986 4.90357 25.2054 0.0330658 24.8251V34.2256C-0.242376 40.2423 1.13998 41.7068 5.50248 41.917Z" fill="#B10239"/>
<path d="M26.5985 18.1183V29.3837C26.426 29.4307 26.183 29.4699 25.8694 29.5013C25.5558 29.5483 25.2265 29.5719 24.8816 29.5719C24.1447 29.5719 23.6273 29.4464 23.3294 29.1956C23.0315 28.9447 22.8825 28.49 22.8825 27.8315V18.1183H19.1901C19.0961 17.9616 19.002 17.7577 18.9079 17.5069C18.8295 17.256 18.7903 16.9816 18.7903 16.6837C18.7903 16.1506 18.9079 15.7665 19.1431 15.5313C19.3783 15.2804 19.6997 15.155 20.1073 15.155H30.3849C30.4947 15.3118 30.5888 15.5156 30.6672 15.7665C30.7455 16.0174 30.7847 16.2917 30.7847 16.5896C30.7847 17.1071 30.6672 17.4912 30.432 17.7421C30.1968 17.9929 29.8754 18.1183 29.4677 18.1183H26.5985ZM36.1686 29.3837C36.0118 29.4307 35.7923 29.4699 35.51 29.5013C35.2278 29.5483 34.9142 29.5719 34.5693 29.5719C33.8638 29.5719 33.3542 29.4621 33.0406 29.2426C32.7427 29.0074 32.5938 28.5606 32.5938 27.902V18.2359C32.7505 18.1889 32.9701 18.1419 33.2523 18.0948C33.5345 18.0478 33.8481 18.0243 34.193 18.0243C34.8986 18.0243 35.4003 18.1419 35.6982 18.3771C36.0118 18.6122 36.1686 19.0591 36.1686 19.7176V29.3837ZM32.3821 14.8493C32.3821 14.3162 32.5624 13.8615 32.923 13.4852C33.2993 13.1089 33.7854 12.9208 34.3812 12.9208C34.977 12.9208 35.4552 13.1089 35.8158 13.4852C36.1921 13.8615 36.3802 14.3162 36.3802 14.8493C36.3802 15.398 36.1921 15.8606 35.8158 16.2369C35.4552 16.6132 34.977 16.8013 34.3812 16.8013C33.7854 16.8013 33.2993 16.6132 32.923 16.2369C32.5624 15.8606 32.3821 15.398 32.3821 14.8493ZM56.0514 29.3837C55.8789 29.4307 55.6515 29.4699 55.3693 29.5013C55.0871 29.5483 54.7735 29.5719 54.4286 29.5719C53.723 29.5719 53.2135 29.4621 52.8999 29.2426C52.602 29.0074 52.453 28.5606 52.453 27.902V22.0695C52.453 21.552 52.3119 21.1758 52.0297 20.9406C51.7475 20.6897 51.3633 20.5643 50.8773 20.5643C50.5637 20.5643 50.2658 20.6191 49.9836 20.7289C49.717 20.8387 49.474 20.9798 49.2545 21.1522C49.2702 21.2306 49.278 21.309 49.278 21.3874C49.2937 21.4658 49.3015 21.5442 49.3015 21.6226V29.3837C49.1291 29.4307 48.9017 29.4699 48.6195 29.5013C48.3373 29.5483 48.0237 29.5719 47.6788 29.5719C46.9732 29.5719 46.4637 29.4621 46.1501 29.2426C45.8522 29.0074 45.7032 28.5606 45.7032 27.902V22.0695C45.7032 21.552 45.5464 21.1758 45.2328 20.9406C44.9193 20.6897 44.5351 20.5643 44.0804 20.5643C43.7512 20.5643 43.4533 20.6191 43.1867 20.7289C42.9202 20.823 42.7007 20.917 42.5282 21.0111V29.3837C42.3714 29.4307 42.1519 29.4699 41.8697 29.5013C41.5875 29.5483 41.2739 29.5719 40.929 29.5719C40.2234 29.5719 39.7138 29.4621 39.4003 29.2426C39.0867 29.0074 38.9299 28.5606 38.9299 27.902V20.6348C38.9299 20.2272 39.0161 19.8979 39.1886 19.647C39.3611 19.3962 39.6041 19.161 39.9177 18.9415C40.4351 18.5809 41.0701 18.2908 41.8227 18.0713C42.5909 17.8518 43.3906 17.7421 44.2216 17.7421C44.8801 17.7421 45.4994 17.8361 46.0795 18.0243C46.6753 18.1967 47.2162 18.4711 47.7023 18.8474C48.1727 18.5338 48.7057 18.2751 49.3015 18.0713C49.8974 17.8518 50.6029 17.7421 51.4182 17.7421C52.0297 17.7421 52.6098 17.8204 53.1586 17.9772C53.723 18.1183 54.2169 18.3614 54.6402 18.7063C55.0636 19.0356 55.4007 19.4746 55.6515 20.0233C55.9181 20.5564 56.0514 21.2071 56.0514 21.9754V29.3837ZM61.762 25.2445C61.9816 25.903 62.3657 26.3733 62.9145 26.6556C63.4632 26.9221 64.0982 27.0554 64.8195 27.0554C65.478 27.0554 66.0973 26.9691 66.6774 26.7967C67.2575 26.6085 67.7279 26.4047 68.0885 26.1852C68.3237 26.342 68.5197 26.5458 68.6765 26.7967C68.8333 27.0475 68.9117 27.3219 68.9117 27.6198C68.9117 27.9804 68.8019 28.294 68.5824 28.5606C68.3629 28.8271 68.0572 29.0544 67.6652 29.2426C67.2889 29.4151 66.8342 29.5405 66.3011 29.6189C65.7837 29.713 65.2114 29.76 64.5843 29.76C63.6592 29.76 62.8047 29.6346 62.0208 29.3837C61.2368 29.1172 60.5626 28.733 59.9982 28.2313C59.4337 27.7139 58.9869 27.0711 58.6576 26.3028C58.344 25.5345 58.1872 24.633 58.1872 23.5982C58.1872 22.5947 58.344 21.7245 58.6576 20.9876C58.9869 20.2507 59.418 19.6392 59.9511 19.1532C60.4999 18.6671 61.1192 18.3143 61.8091 18.0948C62.5146 17.8596 63.2359 17.7421 63.9728 17.7421C64.7724 17.7421 65.5015 17.8675 66.16 18.1183C66.8342 18.3535 67.4065 18.6906 67.8769 19.1296C68.3629 19.5687 68.7392 20.0939 69.0057 20.7054C69.2723 21.3169 69.4056 21.9832 69.4056 22.7045C69.4056 23.2062 69.2723 23.5825 69.0057 23.8333C68.7392 24.0842 68.3629 24.2488 67.8769 24.3272L61.762 25.2445ZM63.9963 20.3996C63.3221 20.3996 62.7577 20.6113 62.303 21.0346C61.864 21.4423 61.6053 22.0381 61.5269 22.822L66.0189 22.093C65.9875 21.6853 65.8072 21.3012 65.478 20.9406C65.1487 20.58 64.6548 20.3996 63.9963 20.3996ZM80.7636 26.0911C80.7636 27.2514 80.3325 28.1607 79.4701 28.8193C78.6078 29.4621 77.3378 29.7835 75.6601 29.7835C75.0016 29.7835 74.398 29.7365 73.8492 29.6424C73.3161 29.5483 72.8536 29.4072 72.4616 29.2191C72.0696 29.0309 71.7639 28.7957 71.5444 28.5135C71.3249 28.2313 71.2151 27.902 71.2151 27.5257C71.2151 27.1808 71.2857 26.8907 71.4268 26.6556C71.5679 26.4047 71.7482 26.2009 71.9677 26.0441C72.4224 26.3106 72.9398 26.5458 73.5199 26.7496C74.1001 26.9535 74.7743 27.0554 75.5425 27.0554C76.6557 27.0554 77.2123 26.7418 77.2123 26.1146C77.2123 25.8481 77.1104 25.6443 76.9066 25.5032C76.7184 25.362 76.3892 25.2366 75.9188 25.1269L74.9781 24.9152C73.6924 24.6487 72.736 24.241 72.1088 23.6922C71.4817 23.1278 71.1681 22.3438 71.1681 21.3404C71.1681 20.2272 71.6149 19.3491 72.5086 18.7063C73.418 18.0478 74.6331 17.7185 76.154 17.7185C76.7184 17.7185 77.2515 17.7656 77.7533 17.8596C78.255 17.938 78.6862 18.0635 79.0468 18.2359C79.4074 18.4084 79.6896 18.6279 79.8934 18.8945C80.113 19.1453 80.2227 19.4432 80.2227 19.7882C80.2227 20.1017 80.16 20.384 80.0346 20.6348C79.9091 20.87 79.7445 21.066 79.5407 21.2228C79.4152 21.1444 79.2271 21.0582 78.9762 20.9641C78.741 20.87 78.4823 20.7838 78.2001 20.7054C77.9179 20.627 77.62 20.5643 77.3064 20.5172C76.9928 20.4702 76.7028 20.4467 76.4362 20.4467C75.8875 20.4467 75.4563 20.5251 75.1427 20.6819C74.8448 20.823 74.6959 21.0425 74.6959 21.3404C74.6959 21.5599 74.7821 21.7324 74.9546 21.8578C75.127 21.9832 75.4406 22.1008 75.8953 22.2106L76.789 22.4222C78.2158 22.7358 79.2349 23.1905 79.8464 23.7863C80.4579 24.3821 80.7636 25.1504 80.7636 26.0911ZM86.4644 25.6678C86.4644 26.1068 86.6055 26.4282 86.8877 26.632C87.17 26.8202 87.5619 26.9143 88.0637 26.9143C88.2988 26.9143 88.5497 26.8907 88.8163 26.8437C89.0828 26.781 89.3101 26.7104 89.4983 26.632C89.6394 26.7888 89.757 26.9691 89.8511 27.173C89.9451 27.3768 89.9922 27.612 89.9922 27.8785C89.9922 28.4273 89.7727 28.882 89.3337 29.2426C88.9103 29.5875 88.1656 29.76 87.0994 29.76C85.7824 29.76 84.7554 29.4621 84.0185 28.8663C83.2816 28.2548 82.9131 27.267 82.9131 25.903V15.3432C83.0856 15.2961 83.3129 15.2491 83.5951 15.2021C83.8774 15.1393 84.1831 15.108 84.5124 15.108C85.2022 15.108 85.6961 15.2334 85.994 15.4843C86.3076 15.7195 86.4644 16.1585 86.4644 16.8013V18.33H89.71C89.7883 18.4868 89.8667 18.6906 89.9451 18.9415C90.0235 19.1767 90.0627 19.4275 90.0627 19.6941C90.0627 20.1958 89.9451 20.5564 89.71 20.7759C89.4904 20.9954 89.2004 21.1052 88.8398 21.1052H86.4644V25.6678ZM96.8025 27.1259C97.1475 27.1259 97.4846 27.0946 97.8138 27.0319C98.1588 26.9535 98.4175 26.8594 98.5899 26.7496V24.5859L96.6614 24.7506C96.1597 24.7976 95.752 24.9152 95.4385 25.1033C95.1406 25.2758 94.9916 25.5424 94.9916 25.903C94.9916 26.2793 95.1327 26.5772 95.415 26.7967C95.6972 27.0162 96.1597 27.1259 96.8025 27.1259ZM96.6614 17.7421C97.4767 17.7421 98.2137 17.8283 98.8722 18.0008C99.5464 18.1575 100.119 18.4084 100.589 18.7533C101.059 19.0983 101.42 19.5373 101.671 20.0704C101.937 20.6035 102.071 21.2306 102.071 21.9519V27.267C102.071 27.6747 101.961 28.004 101.741 28.2548C101.538 28.49 101.287 28.6938 100.989 28.8663C100.503 29.1642 99.907 29.3915 99.2014 29.5483C98.4959 29.7051 97.6962 29.7835 96.8025 29.7835C95.1876 29.7835 93.9019 29.4778 92.9455 28.8663C91.9891 28.2391 91.5109 27.2906 91.5109 26.0206C91.5109 24.9387 91.8323 24.1156 92.4751 23.5511C93.118 22.9867 94.1058 22.6339 95.4385 22.4928L98.5664 22.1635V21.9048C98.5664 21.4031 98.3626 21.0346 97.9549 20.7995C97.5473 20.5643 96.9593 20.4467 96.1911 20.4467C95.5953 20.4467 95.0073 20.5172 94.4272 20.6583C93.8627 20.7995 93.3532 20.9641 92.8985 21.1522C92.7103 21.0268 92.5457 20.8387 92.4046 20.5878C92.2792 20.3212 92.2164 20.039 92.2164 19.7411C92.2164 19.0512 92.5771 18.5574 93.2983 18.2595C93.753 18.087 94.2782 17.9616 94.874 17.8832C95.4855 17.7891 96.0813 17.7421 96.6614 17.7421ZM108.283 25.6678C108.283 26.1068 108.424 26.4282 108.706 26.632C108.989 26.8202 109.381 26.9143 109.882 26.9143C110.118 26.9143 110.368 26.8907 110.635 26.8437C110.902 26.781 111.129 26.7104 111.317 26.632C111.458 26.7888 111.576 26.9691 111.67 27.173C111.764 27.3768 111.811 27.612 111.811 27.8785C111.811 28.4273 111.591 28.882 111.152 29.2426C110.729 29.5875 109.984 29.76 108.918 29.76C107.601 29.76 106.574 29.4621 105.837 28.8663C105.1 28.2548 104.732 27.267 104.732 25.903V15.3432C104.904 15.2961 105.132 15.2491 105.414 15.2021C105.696 15.1393 106.002 15.108 106.331 15.108C107.021 15.108 107.515 15.2334 107.813 15.4843C108.126 15.7195 108.283 16.1585 108.283 16.8013V18.33H111.529C111.607 18.4868 111.686 18.6906 111.764 18.9415C111.842 19.1767 111.881 19.4275 111.881 19.6941C111.881 20.1958 111.764 20.5564 111.529 20.7759C111.309 20.9954 111.019 21.1052 110.659 21.1052H108.283V25.6678Z" fill="white"/>
</svg>
