<svg width="114" height="43" viewBox="0 0 114 43" fill="none" xmlns="http://www.w3.org/2000/svg">
<path d="M24.357 18.7072C24.4829 18.6568 24.6654 18.6002 24.9046 18.5373C25.1564 18.4617 25.4081 18.424 25.6599 18.424C26.1005 18.424 26.4656 18.4932 26.7551 18.6316C27.0447 18.7575 27.2209 18.9463 27.2838 19.198C27.523 19.9656 27.7307 20.6704 27.907 21.3122C28.0958 21.9414 28.2783 22.5581 28.4546 23.1622C28.6308 23.7536 28.8071 24.3766 28.9833 25.031H29.0588C29.2477 23.9613 29.4113 22.9419 29.5498 21.9729C29.7009 21.0039 29.8456 20.0411 29.9841 19.0847C30.1226 18.1283 30.2548 17.1403 30.3806 16.121C30.7583 15.9196 31.1611 15.8189 31.5892 15.8189C31.9794 15.8189 32.3067 15.907 32.5711 16.0832C32.848 16.2468 32.9865 16.5174 32.9865 16.8949C32.9865 17.1592 32.955 17.5431 32.8921 18.0465C32.8291 18.5373 32.7473 19.1099 32.6466 19.7643C32.5459 20.4061 32.4263 21.0731 32.2878 21.7653C32.1494 22.4574 32.0046 23.137 31.8535 23.804C31.7025 24.471 31.5514 25.0813 31.4003 25.6351C31.2493 26.1888 31.1045 26.6356 30.966 26.9754C30.8024 27.1138 30.5443 27.2333 30.1918 27.334C29.8519 27.4221 29.4932 27.4662 29.1155 27.4662C28.6497 27.4662 28.2469 27.3969 27.907 27.2585C27.5671 27.1201 27.3594 26.9376 27.2838 26.7111C27.1454 26.3335 26.9943 25.8868 26.8307 25.3708C26.667 24.8422 26.4908 24.2696 26.3019 23.653C26.1257 23.0363 25.9495 22.4008 25.7732 21.7464C25.6221 22.3882 25.4585 23.0363 25.2823 23.6907C25.106 24.3451 24.9298 24.9618 24.7535 25.5407C24.5899 26.107 24.4388 26.5915 24.3003 26.9942C24.1493 27.1201 23.9164 27.2333 23.6017 27.334C23.2995 27.4221 22.9597 27.4662 22.582 27.4662C22.1162 27.4662 21.7008 27.3969 21.3357 27.2585C20.9707 27.1201 20.7315 26.9376 20.6182 26.7111C20.4923 26.4216 20.3412 25.9812 20.165 25.3897C20.0013 24.7982 19.8251 24.1186 19.6363 23.3509C19.4474 22.5707 19.2649 21.7653 19.0887 20.9347C18.925 20.1041 18.7739 19.2923 18.6355 18.4995C18.497 17.7067 18.39 16.9956 18.3145 16.3664C18.4529 16.228 18.6543 16.1021 18.9187 15.9888C19.1831 15.8756 19.46 15.8189 19.7496 15.8189C20.1524 15.8189 20.4734 15.907 20.7126 16.0832C20.9644 16.2468 21.1217 16.5363 21.1847 16.9516C21.3861 18.059 21.5497 19.0218 21.6756 19.8398C21.8141 20.6578 21.9337 21.3751 22.0344 21.9918C22.1477 22.6084 22.2484 23.1622 22.3365 23.653C22.4246 24.1312 22.5128 24.5905 22.6009 25.031H22.6953C22.8338 24.5024 22.9597 24.0116 23.073 23.5586C23.1988 23.0929 23.3247 22.6273 23.4506 22.1617C23.5891 21.696 23.7276 21.1864 23.866 20.6326C24.0171 20.0663 24.1808 19.4245 24.357 18.7072Z" fill="white"/>
<path d="M43.6366 22.8413C43.6366 23.8229 43.4415 24.6723 43.0512 25.3897C42.661 26.107 42.1134 26.6607 41.4084 27.0509C40.7035 27.441 39.8726 27.6361 38.9159 27.6361C37.9591 27.6361 37.122 27.4473 36.4045 27.0697C35.6995 26.6796 35.1519 26.1259 34.7616 25.4085C34.3714 24.6912 34.1763 23.8354 34.1763 22.8413C34.1763 21.8596 34.3714 21.0165 34.7616 20.3117C35.1645 19.5944 35.7184 19.0406 36.4233 18.6505C37.1409 18.2604 37.9717 18.0653 38.9159 18.0653C39.86 18.0653 40.6846 18.2604 41.3895 18.6505C42.0945 19.0406 42.6421 19.5944 43.0324 20.3117C43.4352 21.029 43.6366 21.8722 43.6366 22.8413ZM38.897 20.1418C38.2802 20.1418 37.7892 20.3809 37.4241 20.8591C37.0591 21.3248 36.8765 21.9855 36.8765 22.8413C36.8765 23.7222 37.0528 24.3955 37.4052 24.8611C37.7703 25.3267 38.2739 25.5596 38.9159 25.5596C39.5453 25.5596 40.0363 25.3267 40.3888 24.8611C40.7538 24.3829 40.9364 23.7096 40.9364 22.8413C40.9364 21.9981 40.7538 21.3374 40.3888 20.8591C40.0363 20.3809 39.539 20.1418 38.897 20.1418Z" fill="white"/>
<path d="M48.0967 20.6704V23.1055H45.4719V20.3872C45.4719 20.0474 45.5538 19.758 45.7174 19.5189C45.8811 19.2798 46.1077 19.0658 46.3972 18.877C46.8 18.6379 47.291 18.4492 47.8701 18.3107C48.4617 18.1597 49.0849 18.0842 49.7395 18.0842C50.9858 18.0842 51.6089 18.4869 51.6089 19.2923C51.6089 19.4811 51.5774 19.6573 51.5145 19.8209C51.4641 19.9845 51.4012 20.1292 51.3257 20.2551C51.1998 20.2299 51.0424 20.211 50.8536 20.1984C50.6648 20.1733 50.4696 20.1607 50.2682 20.1607C49.8654 20.1607 49.4688 20.2047 49.0786 20.2928C48.7009 20.3809 48.3736 20.5068 48.0967 20.6704ZM45.4719 22.3693L48.0967 22.4448V27.334C47.9834 27.3592 47.8197 27.3906 47.6057 27.4284C47.3917 27.4662 47.1588 27.485 46.9071 27.485C46.4161 27.485 46.051 27.3969 45.8118 27.2208C45.5852 27.0446 45.4719 26.7237 45.4719 26.258V22.3693Z" fill="white"/>
<path d="M56.8653 23.6718L54.9959 22.4637L59.2634 18.1786C59.8047 18.1912 60.2327 18.317 60.5475 18.5561C60.8622 18.7827 61.0195 19.0784 61.0195 19.4434C61.0195 19.758 60.9125 20.0348 60.6985 20.274C60.4971 20.5131 60.1761 20.8151 59.7355 21.1801L56.8653 23.6718ZM55.0903 22.8601L57.1485 21.9163L61.4161 25.9937C61.3783 26.4594 61.2335 26.8306 60.9818 27.1075C60.7426 27.3718 60.409 27.5039 59.981 27.5039C59.6537 27.5039 59.3578 27.4221 59.0935 27.2585C58.8291 27.0949 58.5459 26.8306 58.2437 26.4657L55.0903 22.8601ZM53.0887 22.3504L55.7134 22.426V27.334C55.6001 27.3592 55.4365 27.3906 55.2225 27.4284C55.0085 27.4662 54.7756 27.485 54.5238 27.485C54.0329 27.485 53.6678 27.3969 53.4286 27.2208C53.202 27.0446 53.0887 26.7237 53.0887 26.258V22.3504ZM55.7134 23.7851L53.0887 23.7096V15.0639C53.202 15.0387 53.3657 15.0072 53.5797 14.9695C53.7937 14.9317 54.0266 14.9128 54.2783 14.9128C54.7819 14.9128 55.1469 15.0009 55.3735 15.1771C55.6001 15.3533 55.7134 15.6742 55.7134 16.1399V23.7851Z" fill="white"/>
<path d="M70.1109 24.7478C70.1109 25.6539 69.771 26.365 69.0913 26.881C68.4115 27.3969 67.4296 27.6549 66.1455 27.6549C65.1133 27.6549 64.2635 27.5039 63.5963 27.2019C62.9417 26.8873 62.6144 26.4531 62.6144 25.8994C62.6144 25.6602 62.6711 25.4463 62.7844 25.2575C62.8977 25.0562 63.0361 24.8989 63.1998 24.7856C63.5648 24.9995 63.9803 25.1946 64.4461 25.3708C64.9118 25.547 65.4468 25.6351 66.0511 25.6351C67.0204 25.6351 67.5051 25.3456 67.5051 24.7667C67.5051 24.5276 67.417 24.3388 67.2407 24.2004C67.0645 24.0494 66.7875 23.9361 66.4099 23.8606L65.5035 23.6341C64.5342 23.4327 63.8103 23.1118 63.332 22.6714C62.8536 22.2309 62.6144 21.6331 62.6144 20.878C62.6144 20.0223 62.9606 19.3364 63.653 18.8204C64.3453 18.3044 65.2832 18.0465 66.4665 18.0465C67.0834 18.0465 67.631 18.1094 68.1093 18.2352C68.6003 18.3485 68.9843 18.5247 69.2612 18.7638C69.5507 19.0029 69.6955 19.2923 69.6955 19.6321C69.6955 19.8712 69.6452 20.0852 69.5444 20.274C69.4437 20.4501 69.3179 20.5949 69.1668 20.7081C69.0283 20.62 68.8206 20.5257 68.5436 20.425C68.2667 20.3243 67.9583 20.2425 67.6184 20.1796C67.2911 20.1041 66.9764 20.0663 66.6742 20.0663C66.221 20.0663 65.856 20.1355 65.579 20.274C65.3147 20.4124 65.1825 20.6137 65.1825 20.878C65.1825 21.0542 65.258 21.2115 65.4091 21.35C65.5601 21.4758 65.8245 21.5828 66.2022 21.6709L67.033 21.8596C68.1282 22.1113 68.915 22.47 69.3934 22.9356C69.8717 23.4013 70.1109 24.0053 70.1109 24.7478Z" fill="white"/>
<path d="M71.9343 22.3693H74.559V24.4647C74.559 24.8422 74.6723 25.1128 74.8989 25.2764C75.1381 25.44 75.4654 25.5218 75.8809 25.5218C76.0823 25.5218 76.29 25.5029 76.504 25.4652C76.7306 25.4148 76.9257 25.3582 77.0894 25.2953C77.1901 25.396 77.2782 25.5281 77.3537 25.6917C77.4292 25.8427 77.467 26.0252 77.467 26.2391C77.467 26.6293 77.2908 26.9565 76.9383 27.2208C76.5984 27.485 76.0319 27.6172 75.2388 27.6172C74.2066 27.6172 73.3946 27.3844 72.8029 26.9187C72.2239 26.4531 71.9343 25.698 71.9343 24.6535V22.3693ZM73.5771 20.576V18.5373H77.2404C77.3034 18.6379 77.36 18.7764 77.4104 18.9526C77.4733 19.1287 77.5048 19.3238 77.5048 19.5377C77.5048 19.8901 77.423 20.1544 77.2593 20.3306C77.0956 20.4942 76.8753 20.576 76.5984 20.576H73.5771ZM74.559 22.8601H71.9343V16.0643C72.0476 16.0266 72.2113 15.9888 72.4253 15.9511C72.6519 15.9133 72.8848 15.8945 73.1239 15.8945C73.6149 15.8945 73.9737 15.9825 74.2003 16.1587C74.4395 16.3349 74.559 16.6558 74.559 17.1215V22.8601Z" fill="white"/>
<path d="M82.9175 27.6361C81.6461 27.6361 80.6327 27.3906 79.8774 26.8998C79.1347 26.409 78.7633 25.6728 78.7633 24.6912C78.7633 23.8354 79.0277 23.181 79.5564 22.728C80.0851 22.2749 80.8719 21.9981 81.9168 21.8974L84.4471 21.6331V21.35C84.4471 20.8969 84.2771 20.5697 83.9372 20.3683C83.5973 20.167 83.119 20.0663 82.5021 20.0663C82.0238 20.0663 81.5517 20.1292 81.0859 20.2551C80.6201 20.3683 80.2047 20.5068 79.8396 20.6704C79.7012 20.5697 79.5816 20.425 79.4809 20.2362C79.3801 20.0348 79.3298 19.8272 79.3298 19.6133C79.3298 19.1099 79.6004 18.7449 80.1418 18.5184C80.5068 18.3674 80.9285 18.2541 81.4069 18.1786C81.8853 18.1031 82.3574 18.0653 82.8231 18.0653C84.0946 18.0653 85.108 18.3359 85.8633 18.877C86.6312 19.4056 87.0151 20.2425 87.0151 21.3877V25.6917C87.0151 26.0063 86.9333 26.258 86.7697 26.4468C86.6186 26.623 86.4235 26.7866 86.1843 26.9376C85.8192 27.1515 85.3597 27.3214 84.8058 27.4473C84.2519 27.5731 83.6225 27.6361 82.9175 27.6361ZM82.9175 25.6728C83.2449 25.6728 83.547 25.6414 83.8239 25.5784C84.1135 25.5155 84.3275 25.44 84.466 25.3519V23.4264L82.7665 23.5775C82.3133 23.6152 81.9608 23.7159 81.709 23.8795C81.4573 24.0431 81.3314 24.2822 81.3314 24.5968C81.3314 24.924 81.4573 25.1883 81.709 25.3897C81.9608 25.5784 82.3636 25.6728 82.9175 25.6728Z" fill="white"/>
<path d="M89.2867 22.3693H91.9114V24.4647C91.9114 24.8422 92.0247 25.1128 92.2513 25.2764C92.4905 25.44 92.8178 25.5218 93.2332 25.5218C93.4347 25.5218 93.6424 25.5029 93.8564 25.4652C94.083 25.4148 94.2781 25.3582 94.4417 25.2953C94.5424 25.396 94.6306 25.5281 94.7061 25.6917C94.7816 25.8427 94.8194 26.0252 94.8194 26.2391C94.8194 26.6293 94.6432 26.9565 94.2907 27.2208C93.9508 27.485 93.3843 27.6172 92.5912 27.6172C91.559 27.6172 90.747 27.3844 90.1553 26.9187C89.5762 26.4531 89.2867 25.698 89.2867 24.6535V22.3693ZM90.9295 20.576V18.5373H94.5928C94.6558 18.6379 94.7124 18.7764 94.7628 18.9526C94.8257 19.1287 94.8572 19.3238 94.8572 19.5377C94.8572 19.8901 94.7753 20.1544 94.6117 20.3306C94.448 20.4942 94.2277 20.576 93.9508 20.576H90.9295ZM91.9114 22.8601H89.2867V16.0643C89.4 16.0266 89.5637 15.9888 89.7777 15.9511C90.0043 15.9133 90.2371 15.8945 90.4763 15.8945C90.9673 15.8945 91.3261 15.9825 91.5527 16.1587C91.7918 16.3349 91.9114 16.6558 91.9114 17.1215V22.8601Z" fill="white"/>
<path d="M7.37012 35.3C7.29127 35.3 7.21399 35.2919 7.13965 35.2766C6.91714 35.231 6.7181 35.1208 6.56348 34.9661C6.51195 34.9145 6.46574 34.8577 6.4248 34.7971C6.36343 34.7062 6.31453 34.6062 6.28125 34.4993C6.25901 34.4278 6.24313 34.3534 6.23535 34.2766C6.23148 34.2384 6.2295 34.1996 6.22949 34.1604L6.22949 25.8616H9.43652C9.75129 25.8616 10.0068 26.1171 10.0068 26.4319V31.5247H15.1016C15.4163 31.5247 15.6719 31.7802 15.6719 32.095V35.3H7.37012Z" fill="#B10239"/>
<path d="M7.37012 35.3C7.29127 35.3 7.21399 35.2919 7.13965 35.2766C6.91714 35.231 6.7181 35.1208 6.56348 34.9661C6.51195 34.9145 6.46574 34.8577 6.4248 34.7971C6.36343 34.7062 6.31453 34.6062 6.28125 34.4993C6.25901 34.4278 6.24313 34.3534 6.23535 34.2766C6.23148 34.2384 6.2295 34.1996 6.22949 34.1604L6.22949 25.8616H9.43652C9.75129 25.8616 10.0068 26.1171 10.0068 26.4319V31.5247H15.1016C15.4163 31.5247 15.6719 31.7802 15.6719 32.095V35.3H7.37012Z" fill="#B10239"/>
<path d="M107.06 6.98425C107.61 6.98437 108.071 7.37499 108.177 7.89441C108.192 7.96851 108.199 8.04532 108.199 8.1239V16.4227H104.993C104.679 16.4227 104.423 16.168 104.423 15.8534V10.7596H99.3281C99.0134 10.7596 98.7578 10.5041 98.7578 10.1893V6.98425H107.06Z" fill="#B10239"/>
<path d="M107.06 6.98425C107.61 6.98437 108.071 7.37499 108.177 7.89441C108.192 7.96851 108.199 8.04532 108.199 8.1239V16.4227H104.993C104.679 16.4227 104.423 16.168 104.423 15.8534V10.7596H99.3281C99.0134 10.7596 98.7578 10.5041 98.7578 10.1893V6.98425H107.06Z" fill="#B10239"/>
</svg>
