<svg width="45" height="32" viewBox="0 0 45 32" fill="none" xmlns="http://www.w3.org/2000/svg">
<path d="M20.3639 13.2195C20.5053 13.1629 20.7103 13.0993 20.979 13.0286C21.2618 12.9438 21.5447 12.9014 21.8275 12.9014C22.3224 12.9014 22.7325 12.9792 23.0578 13.1347C23.383 13.276 23.581 13.4881 23.6517 13.7708C23.9204 14.6332 24.1537 15.4248 24.3517 16.1458C24.5638 16.8526 24.7688 17.5453 24.9668 18.2239C25.1648 18.8883 25.3627 19.5881 25.5607 20.3232H25.6456C25.8577 19.1216 26.0415 17.9765 26.1971 16.888C26.3668 15.7994 26.5294 14.718 26.6849 13.6436C26.8405 12.5692 26.989 11.4595 27.1304 10.3144C27.5546 10.0882 28.0071 9.9751 28.4879 9.9751C28.9263 9.9751 29.294 10.0741 29.5909 10.272C29.902 10.4557 30.0576 10.7597 30.0576 11.1838C30.0576 11.4807 30.0222 11.9118 29.9515 12.4773C29.8808 13.0286 29.7889 13.6719 29.6758 14.407C29.5626 15.1279 29.4283 15.8772 29.2727 16.6547C29.1172 17.4322 28.9546 18.1956 28.7849 18.9449C28.6152 19.6941 28.4455 20.3797 28.2758 21.0018C28.1061 21.6238 27.9435 22.1256 27.7879 22.5073C27.6041 22.6628 27.3142 22.7971 26.9183 22.9102C26.5365 23.0092 26.1334 23.0587 25.7092 23.0587C25.186 23.0587 24.7335 22.9809 24.3517 22.8254C23.9699 22.6699 23.7365 22.4649 23.6517 22.2104C23.4961 21.7863 23.3264 21.2845 23.1426 20.7049C22.9588 20.1111 22.7608 19.4679 22.5487 18.7752C22.3507 18.0825 22.1527 17.3686 21.9548 16.6335C21.7851 17.3545 21.6012 18.0825 21.4032 18.8176C21.2053 19.5527 21.0073 20.2454 20.8093 20.8957C20.6255 21.5319 20.4558 22.0761 20.3002 22.5285C20.1306 22.6699 19.8689 22.7971 19.5154 22.9102C19.176 23.0092 18.7942 23.0587 18.37 23.0587C17.8468 23.0587 17.3801 22.9809 16.97 22.8254C16.5599 22.6699 16.2913 22.4649 16.164 22.2104C16.0226 21.8853 15.8529 21.3905 15.6549 20.7261C15.4711 20.0617 15.2731 19.2983 15.061 18.4359C14.8489 17.5595 14.6438 16.6547 14.4458 15.7217C14.262 14.7887 14.0923 13.8768 13.9368 12.9862C13.7812 12.0956 13.661 11.2969 13.5762 10.59C13.7317 10.4345 13.958 10.2932 14.2549 10.1659C14.5519 10.0387 14.863 9.9751 15.1883 9.9751C15.6408 9.9751 16.0014 10.0741 16.27 10.272C16.5529 10.4557 16.7296 10.7809 16.8003 11.2474C17.0266 12.4914 17.2104 13.5729 17.3518 14.4918C17.5074 15.4107 17.6417 16.2165 17.7549 16.9092C17.8821 17.6019 17.9953 18.2239 18.0942 18.7752C18.1932 19.3124 18.2922 19.8284 18.3912 20.3232H18.4973C18.6528 19.7294 18.7942 19.1781 18.9215 18.6692C19.0629 18.1461 19.2043 17.6231 19.3457 17.1C19.5013 16.577 19.6568 16.0044 19.8124 15.3824C19.9821 14.7462 20.1659 14.0253 20.3639 13.2195Z" fill="#1B5773"/>
<path d="M1.2793 31.8585C1.05834 31.8585 0.850347 31.8028 0.668945 31.7042C0.596448 31.6648 0.528024 31.6187 0.464844 31.5665C0.180228 31.3317 -0.000927925 30.976 -0.000976562 30.5782L-0.000976562 21.256H3.60059C3.95418 21.256 4.24121 21.543 4.24121 21.8966V27.6173H9.96484C10.3184 27.6173 10.6055 27.9043 10.6055 28.2579V31.8585H1.2793Z" fill="#B10239"/>
<path d="M1.2793 31.8585C1.05834 31.8585 0.850347 31.8028 0.668945 31.7042C0.596448 31.6648 0.528024 31.6187 0.464844 31.5665C0.180228 31.3317 -0.000927925 30.976 -0.000976562 30.5782L-0.000976562 21.256H3.60059C3.95418 21.256 4.24121 21.543 4.24121 21.8966V27.6173H9.96484C10.3184 27.6173 10.6055 27.9043 10.6055 28.2579V31.8585H1.2793Z" fill="#B10239"/>
<path d="M43.2646 0.0509033C43.3087 0.0509033 43.3526 0.0533875 43.3955 0.0577393C43.4388 0.0621392 43.4815 0.0686606 43.5234 0.0772705C43.94 0.162687 44.2824 0.450314 44.4443 0.83313C44.5091 0.986236 44.5449 1.15449 44.5449 1.33118V10.6534H40.9434C40.5898 10.6534 40.3027 10.3664 40.3027 10.0128V4.29211H34.5791C34.2257 4.29189 33.9395 4.00495 33.9395 3.65149V0.0509033H43.2646Z" fill="#B10239"/>
<path d="M43.2646 0.0509033C43.3087 0.0509033 43.3526 0.0533875 43.3955 0.0577393C43.4388 0.0621392 43.4815 0.0686606 43.5234 0.0772705C43.94 0.162687 44.2824 0.450314 44.4443 0.83313C44.5091 0.986236 44.5449 1.15449 44.5449 1.33118V10.6534H40.9434C40.5898 10.6534 40.3027 10.3664 40.3027 10.0128V4.29211H34.5791C34.2257 4.29189 33.9395 4.00495 33.9395 3.65149V0.0509033H43.2646Z" fill="#B10239"/>
</svg>
